<?xml version="1.0" encoding="UTF-8"?>
<!DOCTYPE svg PUBLIC "-//W3C//DTD SVG 1.1//EN" "http://www.w3.org/Graphics/SVG/1.1/DTD/svg11.dtd">
<!-- Creator: CorelDRAW -->
<svg xmlns="http://www.w3.org/2000/svg" xml:space="preserve" width="214.938mm" height="35.6903mm" version="1.1" style="shape-rendering:geometricPrecision; text-rendering:geometricPrecision; image-rendering:optimizeQuality; fill-rule:evenodd; clip-rule:evenodd"
viewBox="0 0 21501.92 3570.38"
 xmlns:xlink="http://www.w3.org/1999/xlink"
 xmlns:xodm="http://www.corel.com/coreldraw/odm/2003">
 <defs>
  <style type="text/css">
   <![CDATA[
    .str0 {stroke:white;stroke-width:200.08;stroke-miterlimit:22.9256}
    .fil0 {fill:white;fill-rule:nonzero}
   ]]>
  </style>
 </defs>
 <g id="Capa_x0020_1">
  <metadata id="CorelCorpID_0Corel-Layer"/>
  <path class="fil0 str0" d="M1074.21 1818.72c-108.23,-35.29 -215.27,-76.47 -322.32,-122.35 -107.05,-45.88 -203.52,-102.34 -288.22,-170.57 -84.69,-68.23 -152.93,-149.4 -204.69,-243.5 -51.76,-94.12 -77.64,-205.87 -77.64,-335.27 0,-143.51 30.59,-268.21 91.75,-374.09 61.17,-105.87 142.34,-194.09 242.33,-264.68 100,-70.59 212.93,-123.52 339.98,-157.63 127.05,-34.12 256.45,-50.59 388.2,-50.59 207.05,0 397.62,37.64 570.55,114.11 172.93,76.46 304.67,198.81 396.43,365.85 16.48,32.94 22.36,64.7 17.65,95.29 -4.7,30.58 -16.47,55.29 -35.28,74.11 -28.24,28.23 -60,42.36 -95.29,42.36 -18.83,0 -40.01,-5.88 -63.52,-17.65 -103.53,-138.81 -216.45,-236.45 -338.8,-292.92 -122.35,-56.46 -267.04,-84.7 -434.08,-84.7 -89.4,0 -179.98,9.41 -271.74,28.24 -91.75,18.82 -174.1,49.41 -248.21,91.75 -74.11,42.35 -135.28,98.82 -182.34,169.39 -47.05,70.59 -70.58,157.64 -70.58,261.16 0,91.75 20,169.39 59.99,234.1 40,64.69 94.11,121.17 162.34,168.22 68.23,47.05 147.05,87.04 236.45,119.99 89.4,32.94 182.34,63.52 278.8,91.75 155.29,47.06 303.5,96.47 444.67,149.4 141.17,52.94 265.86,116.46 372.91,190.57 107.05,74.12 191.75,162.34 254.1,263.51 62.35,101.17 92.94,223.51 92.94,367.03 0,134.11 -29.41,257.63 -88.22,371.73 -58.82,114.11 -138.81,212.93 -241.16,296.45 -102.34,83.52 -222.33,149.4 -358.8,197.62 -136.45,48.24 -282.33,72.94 -437.61,72.94 -122.35,0 -241.16,-11.76 -357.61,-35.29 -116.46,-23.53 -224.68,-59.99 -324.68,-108.22 -99.99,-48.23 -189.39,-108.23 -267.03,-181.16 -77.64,-72.94 -141.16,-158.81 -190.57,-257.63 -30.59,-61.17 -32.94,-112.93 -7.06,-155.28 25.88,-42.36 64.7,-63.52 116.46,-63.52 54.11,0 103.52,22.35 148.22,67.05 80,141.16 196.45,249.39 348.21,324.68 151.75,75.29 330.55,112.93 537.6,112.93 105.87,0 208.22,-16.48 305.86,-48.24 97.64,-31.76 184.69,-75.28 261.15,-131.75 76.47,-56.46 136.46,-124.7 181.17,-203.51 44.7,-78.82 67.05,-164.69 67.05,-258.81 0,-96.46 -27.05,-181.16 -82.34,-252.92 -55.29,-71.76 -129.4,-135.28 -222.33,-191.75 -92.94,-56.46 -199.99,-105.87 -321.15,-148.23 -121.17,-42.35 -249.38,-82.34 -383.49,-119.99zm2124.52 109.4c14.12,171.75 58.82,332.92 132.93,483.49 74.12,150.58 170.57,281.15 290.57,392.91 119.99,111.75 258.8,199.98 416.44,263.5 157.63,63.52 325.85,95.29 504.66,95.29 98.82,0 197.62,-10.58 295.27,-31.76 97.64,-21.17 190.57,-52.93 279.98,-94.11 89.4,-41.18 172.93,-90.58 249.38,-148.23 76.47,-57.64 142.34,-122.34 198.81,-195.27 37.64,-30.58 75.29,-45.88 112.93,-45.88 7.06,0 14.12,0 20,1.17 5.88,1.18 11.76,3.53 18.83,5.88 23.53,9.41 45.88,28.24 67.06,56.47 23.52,25.88 36.46,58.81 38.81,99.99 2.35,41.18 -15.3,80 -52.93,115.28 -141.17,157.64 -314.1,287.04 -518.79,389.38 -204.69,102.35 -441.14,154.11 -709.35,154.11 -232.93,0 -450.55,-44.7 -654.07,-132.93 -203.51,-88.22 -382.31,-208.22 -535.24,-361.15 -152.93,-152.93 -272.92,-331.74 -361.15,-536.42 -88.23,-204.69 -132.93,-423.49 -132.93,-656.42 0,-232.92 44.7,-451.72 132.93,-655.24 88.22,-203.51 208.22,-381.14 361.15,-534.07 152.93,-152.93 331.74,-274.09 535.24,-362.33 203.52,-88.22 421.14,-131.75 654.07,-131.75 232.92,0 451.72,43.53 655.24,131.75 203.51,88.23 381.14,208.22 532.89,359.98 151.76,151.75 271.74,329.38 361.15,532.89 89.4,203.52 134.11,421.15 134.11,651.72 0,42.35 -12.94,77.64 -40,107.05 -27.06,29.4 -63.52,44.7 -108.23,44.7l-2879.76 0zm2713.89 -261.15c-11.76,-176.46 -55.29,-342.33 -130.58,-496.44 -75.29,-154.1 -174.11,-287.03 -297.62,-399.96 -123.52,-112.93 -265.86,-202.34 -425.85,-267.04 -159.98,-64.69 -330.55,-96.46 -511.71,-96.46 -183.52,0 -355.26,31.76 -515.25,96.46 -159.99,64.7 -299.97,154.11 -421.14,268.22 -121.17,114.1 -218.8,248.21 -292.92,401.14 -74.11,152.93 -117.63,317.62 -129.4,494.08l2724.48 0zm1048.14 261.15c14.12,171.75 58.82,332.92 132.93,483.49 74.12,150.58 170.57,281.15 290.57,392.91 119.99,111.75 258.8,199.98 416.44,263.5 157.63,63.52 325.85,95.29 504.66,95.29 98.82,0 197.62,-10.58 295.27,-31.76 97.64,-21.17 190.57,-52.93 279.98,-94.11 89.4,-41.18 172.93,-90.58 249.38,-148.23 76.47,-57.64 142.34,-122.34 198.81,-195.27 37.64,-30.58 75.29,-45.88 112.93,-45.88 7.06,0 14.12,0 20,1.17 5.88,1.18 11.76,3.53 18.83,5.88 23.53,9.41 45.88,28.24 67.06,56.47 23.52,25.88 36.46,58.81 38.81,99.99 2.35,41.18 -15.3,80 -52.93,115.28 -141.17,157.64 -314.1,287.04 -518.79,389.38 -204.69,102.35 -441.14,154.11 -709.35,154.11 -232.93,0 -450.55,-44.7 -654.07,-132.93 -203.51,-88.22 -382.31,-208.22 -535.24,-361.15 -152.93,-152.93 -272.92,-331.74 -361.15,-536.42 -88.23,-204.69 -132.93,-423.49 -132.93,-656.42 0,-232.92 44.7,-451.72 132.93,-655.24 88.22,-203.51 208.22,-381.14 361.15,-534.07 152.93,-152.93 331.74,-274.09 535.24,-362.33 203.52,-88.22 421.14,-131.75 654.07,-131.75 232.92,0 451.72,43.53 655.24,131.75 203.51,88.23 381.14,208.22 532.89,359.98 151.76,151.75 271.74,329.38 361.15,532.89 89.4,203.52 134.11,421.15 134.11,651.72 0,42.35 -12.94,77.64 -40,107.05 -27.06,29.4 -63.52,44.7 -108.23,44.7l-2879.76 0zm2713.89 -261.15c-11.76,-176.46 -55.29,-342.33 -130.58,-496.44 -75.29,-154.1 -174.11,-287.03 -297.62,-399.96 -123.52,-112.93 -265.86,-202.34 -425.85,-267.04 -159.98,-64.69 -330.55,-96.46 -511.71,-96.46 -183.52,0 -355.26,31.76 -515.25,96.46 -159.99,64.7 -299.97,154.11 -421.14,268.22 -121.17,114.1 -218.8,248.21 -292.92,401.14 -74.11,152.93 -117.63,317.62 -129.4,494.08l2724.48 0zm5145.44 1602.21c0,44.7 -14.12,81.17 -43.53,110.57 -29.41,29.41 -64.7,44.71 -104.7,44.71 -42.35,0 -78.82,-15.3 -110.58,-44.71 -31.76,-29.4 -48.23,-65.87 -48.23,-110.57l0 -2082.18c-2.35,-110.58 -28.23,-214.1 -77.64,-309.39 -49.41,-95.29 -112.93,-177.64 -190.57,-247.04 -77.64,-69.41 -165.87,-123.52 -265.86,-163.51 -100,-40 -203.52,-59.99 -309.39,-59.99 -112.93,0 -219.98,22.35 -322.32,67.06 -102.35,44.7 -192.93,103.52 -270.57,177.63 -77.64,74.11 -138.81,161.16 -183.51,259.98 -44.71,98.82 -67.06,202.34 -67.06,310.57l0 2046.88c0,44.7 -15.3,81.17 -45.88,110.57 -30.58,29.41 -65.87,44.71 -105.87,44.71 -40.01,0 -75.29,-15.3 -107.05,-44.71 -31.76,-29.4 -48.24,-65.87 -48.24,-110.57l0 -2082.18c-2.35,-110.58 -27.05,-214.1 -74.11,-309.39 -47.06,-95.29 -109.4,-177.64 -187.04,-247.04 -77.64,-69.41 -165.87,-123.52 -265.86,-163.51 -100,-40 -204.69,-59.99 -312.92,-59.99 -112.93,0 -218.8,21.17 -318.79,63.52 -100,42.35 -189.4,99.99 -267.04,172.93 -77.64,72.94 -138.81,157.63 -184.69,254.1 -45.88,96.47 -70.59,197.63 -72.94,303.5l0 2068.06c0,44.7 -14.12,81.17 -43.53,110.57 -29.4,29.41 -64.69,44.71 -104.69,44.71 -42.36,0 -78.82,-15.3 -110.58,-44.71 -31.76,-29.4 -48.23,-65.87 -48.23,-110.57l0 -2061.01c0,-152.93 31.76,-296.44 95.29,-430.55 63.52,-134.1 148.22,-251.73 254.1,-352.9 105.87,-101.17 228.22,-181.17 367.03,-238.81 138.8,-57.64 283.5,-85.87 434.07,-85.87 105.88,0 208.22,12.94 305.86,40 97.64,27.06 188.22,65.87 272.92,116.46 84.69,50.58 162.34,110.58 232.92,179.99 70.59,69.41 130.58,147.05 179.99,231.74 51.76,-84.69 114.1,-162.33 185.86,-231.74 71.77,-69.41 150.58,-129.41 237.63,-179.99 87.05,-50.59 179.99,-89.4 278.81,-116.46 98.81,-27.05 199.98,-40 303.5,-40 152.93,0 297.62,28.23 432.9,84.7 135.28,56.46 254.1,132.93 356.43,229.39 102.35,96.47 184.69,210.57 247.04,342.33 62.34,131.75 96.46,271.74 103.52,419.96 2.35,4.71 3.53,12.94 3.53,24.71l0 2068.06zm1072.84 -1411.64c0,176.45 31.76,343.5 95.29,501.13 63.52,157.63 151.76,295.27 263.51,414.09 111.75,118.81 243.51,214.1 396.44,284.68 152.93,70.59 318.79,105.87 497.6,105.87 181.17,0 345.86,-35.28 494.08,-105.87 148.23,-70.58 275.27,-167.04 379.97,-288.21 104.69,-121.17 185.86,-262.33 243.5,-423.49 57.64,-161.17 85.88,-330.56 85.88,-509.37l0 -1535.17c0,-44.7 15.29,-82.34 44.7,-112.92 29.41,-30.59 67.06,-45.89 114.11,-45.89 42.35,0 77.64,14.13 105.87,43.53 28.23,29.41 42.35,68.24 42.35,115.28l0 1552.82c0,221.15 -36.46,429.37 -110.57,625.83 -74.12,196.45 -177.64,368.21 -310.57,515.25 -132.93,147.05 -291.74,263.5 -476.43,348.2 -184.69,84.7 -389.38,127.05 -612.89,127.05 -221.15,0 -427.02,-42.35 -617.59,-127.05 -190.57,-84.7 -355.26,-199.99 -495.25,-345.85 -139.99,-145.88 -249.39,-316.45 -328.21,-511.72 -78.81,-195.27 -118.81,-403.49 -118.81,-624.66l0 -1559.87c0,-47.05 15.3,-84.69 45.89,-112.92 30.58,-28.24 67.05,-42.36 109.4,-42.36 42.35,0 78.81,14.12 108.22,42.36 29.41,28.23 43.53,65.87 43.53,112.92l0 1556.35zm5314.85 -1408.12c-192.92,0 -376.43,37.64 -550.54,112.93 -174.11,75.29 -325.85,177.64 -455.25,308.21 -129.41,130.58 -231.75,284.69 -308.22,461.14 -76.46,176.46 -115.28,364.67 -115.28,564.65l0 1372.83c0,44.7 -14.12,81.17 -42.35,110.57 -28.23,29.41 -62.35,44.71 -102.35,44.71 -47.05,0 -85.87,-15.3 -116.45,-44.71 -30.59,-29.4 -45.89,-65.87 -45.89,-110.57l0 -1372.83c0,-239.98 45.89,-465.85 137.64,-677.59 91.75,-211.75 216.45,-397.62 372.91,-556.43 156.46,-158.81 339.97,-284.68 550.54,-377.61 210.57,-92.94 435.25,-138.81 675.23,-138.81l35.29 0c51.76,0 91.75,14.12 118.81,42.36 27.06,28.23 40,64.69 40,109.4 0,44.7 -15.3,81.17 -45.88,109.4 -30.58,28.23 -68.23,42.35 -112.93,42.35l-35.29 0z"/>
 </g>
</svg>
