<?xml version="1.0" encoding="UTF-8"?>
<svg width="111px" height="125px" viewBox="0 0 111 125" version="1.1" xmlns="http://www.w3.org/2000/svg" xmlns:xlink="http://www.w3.org/1999/xlink">
    <!-- Generator: Sketch 55.2 (78181) - https://sketchapp.com -->
    <title>Seemur-Isotipo</title>
    <desc>Created with Sketch.</desc>
    <g id="UI" stroke="none" stroke-width="1" fill="none" fill-rule="evenodd">
        <g id="Seemur/1-Isotipo">
            <g id="Seemur/Isotipo">
                <path d="M55.6142093,124.768903 C52.9943631,124.727264 50.4192241,124.406048 48.0318557,123.244613 C46.4372963,122.466854 45.0275269,121.384237 43.7146233,120.21388 C39.5672785,116.518407 36.1561135,112.198348 33.1175092,107.57343 C31.8046056,105.576239 30.1772608,103.808063 28.9194962,101.769233 C27.2295612,99.0284865 26.0865452,96.0587244 24.9792951,93.0488103 C23.6306257,89.3771315 22.526356,85.6415069 21.6798983,81.8374752 C21.2521987,79.9101785 20.5786091,77.9858559 20.8811283,75.9440516 C21.3296913,72.9133179 22.7320095,70.2662591 24.2073495,67.6474554 C24.2952738,67.4927958 24.3474323,67.2503966 24.5963028,67.2920357 C24.8526245,67.3336748 24.794505,67.5716127 24.8243099,67.7515532 C25.1834583,69.9019167 25.5589994,72.0507931 25.8987747,74.2041309 C26.3950254,77.3449108 27.904641,79.9146398 30.1623584,82.1230007 C31.2710988,83.2071051 32.3947416,84.1097819 33.9639669,84.4889954 C35.9370479,84.9648711 37.5778048,84.4964309 38.9622401,83.1119299 C40.7937481,81.2842697 42.6505902,79.4937872 44.7533223,77.9680106 C46.1273258,76.9731328 47.6354512,76.3485459 49.3104837,76.1849636 C50.2508267,76.0942498 51.1106966,76.4110046 51.8468764,77.0430271 C52.2373199,77.3776272 52.662039,77.6765367 53.0837776,77.9724719 C54.7558297,79.1517515 56.1208918,79.1339061 57.806356,77.9694977 C58.4739846,77.5084931 59.0253743,76.8898546 59.7704956,76.5374091 C61.3233282,75.8027759 62.8046292,76.3024455 64.235262,76.8839061 C65.6584435,77.4623926 66.8074205,78.4959352 68.0025949,79.4328156 C69.3363619,80.4782551 70.5002413,81.7051223 71.6760426,82.9141441 C74.0246647,85.3307006 76.6549426,85.1329147 79.1391768,83.5030403 C80.7218143,82.4650364 81.9527546,80.9318242 83.0391413,79.2930271 C84.6530739,76.8615995 84.9764565,74.1208526 85.4205488,71.38308 C85.6202413,70.159187 85.8348362,68.9382683 86.0389994,67.7158625 C86.0702945,67.535922 86.0196263,67.3024455 86.2938309,67.2890615 C86.4860721,67.2786517 86.5471721,67.4526438 86.6306257,67.5939194 C87.997178,69.8558163 89.0865452,72.2500661 89.8257055,74.7796431 C90.3741147,76.6578652 89.9002176,78.5375744 89.5023229,80.3875413 C88.6499042,84.3566424 87.6857173,88.3019498 86.2312407,92.1015202 C84.8587274,95.6928949 83.6113944,99.3482155 81.3492064,102.530635 C79.8872785,104.588797 78.2882484,106.542862 76.9067936,108.661996 C75.2317611,111.233212 73.2944459,113.621514 71.3332868,115.974124 C69.2320449,118.493291 67.0905665,121.01692 64.2173791,122.725611 C62.207042,123.924223 59.9627368,124.4462 57.6513708,124.676702 C56.9777812,124.742135 56.2997209,124.856642 55.6142093,124.768903 Z M48.2685062,101.802842 L48.2685062,101.844481 C48.5143962,101.844481 48.7617765,101.825149 49.0061762,101.847455 C50.9151768,102.03037 51.7050053,100.501619 51.4963714,98.9 C51.3398959,97.6984137 51.0731425,96.5102115 50.8257623,95.3234964 C50.5023797,93.7679775 50.541126,93.7174157 52.1401561,94.0282221 C52.1669805,94.0341705 52.1908244,94.0549901 52.2161585,94.0564772 C53.6169864,94.133807 54.9954607,94.5278916 56.4022496,94.4193325 C57.4782046,94.3360542 58.543728,94.1561137 59.6137221,94.0207865 C60.1502093,93.9508923 60.4080213,93.9746861 60.2262117,94.7033708 C59.8551413,96.1949438 59.582427,97.7132849 59.3812442,99.2346001 C59.2068859,100.544746 59.8923974,101.715102 60.8848989,101.805816 C61.9653247,101.902479 63.0755553,101.908427 64.1500201,101.771613 C65.8563477,101.548546 66.6521372,100.300859 67.0276783,98.233774 C67.3421195,96.5042631 67.2497244,94.7360872 67.6178143,93.0125248 C67.824958,92.0444151 67.9680213,91.0465631 67.8815872,90.0427627 C67.7549166,88.5749835 66.4941715,87.3272968 65.0501266,87.4447786 C63.6910254,87.5548249 62.3453365,87.6202578 61.0056085,87.4061137 C59.2486127,87.1265367 57.3664364,87.197918 55.9909426,85.7301388 C55.7182283,85.4416391 55.3546091,85.4118969 54.9596949,85.6825512 C54.4500319,86.0335096 53.9791153,86.4751818 53.3651354,86.6476867 C51.020984,87.3005288 48.6276546,87.5920026 46.2015399,87.3674488 C44.7276901,87.2291474 43.2180745,88.2805354 43.0004991,89.7319564 C42.8842602,90.5112029 43.030304,91.2800397 43.1241892,92.0473893 C43.3879622,94.2155981 43.4028646,96.410575 43.8335446,98.5594514 C44.155437,100.161071 44.800712,101.514342 46.638181,101.789458 C47.1701975,101.871249 47.7245677,101.802842 48.2685062,101.802842 Z" id="Combined-Shape" fill="#000000"></path>
                <path d="M55.286058,67.455618 C48.5039645,67.5612029 41.6637516,67.1730668 34.8727167,66.1410112 C26.6853247,64.8962987 18.6916641,62.9630535 11.2583347,59.1724058 C8.15266943,57.5886319 5.24967711,55.7014871 2.95768421,53.0261732 C-1.14048255,48.2436219 -0.964633944,43.0149372 3.39134477,38.4539656 C6.54618805,35.1496034 10.4625452,33.0215466 14.5949876,31.2340383 C17.1537339,30.1276272 19.7884826,29.2279247 22.4753897,28.4858559 C22.919482,28.3624256 23.1266257,28.1750496 23.2622377,27.7095836 C24.5065902,23.4638797 25.2323383,19.100694 26.2457031,14.8044283 C26.8134855,12.4012558 27.6003335,10.033774 29.0771638,8.0053536 C30.184414,6.48255122 31.7864246,5.49510905 33.4286718,4.63109716 C37.3092632,2.58780568 41.4908835,1.51411104 45.8066257,0.85085922 C49.490505,0.285756775 53.1952478,-0.0191011236 56.9104222,0.113251818 C63.2439527,0.342267019 69.4925393,1.16463979 75.3640946,3.72842036 C78.1985358,4.9671844 80.9852892,6.43198942 82.4740414,9.32144746 C83.6528232,11.6101124 84.672149,14.0028751 85.0178853,16.6097819 C85.4083288,19.5676471 86.1802744,22.4511566 86.8240591,25.35846 C86.9686127,26.0142763 87.1027345,26.6775281 87.1817173,27.3437541 C87.2562295,27.981725 87.6034559,28.2553536 88.1950822,28.4233972 C92.6717705,29.6919035 97.0188078,31.2950099 101.079719,33.5955717 C103.367241,34.8923331 105.489346,36.409187 107.331286,38.3082287 C112.067276,43.1874422 112.02704,48.9544613 107.222498,53.7846001 C104.124284,56.9000991 100.371853,58.9850297 96.3854548,60.6907469 C90.2486363,63.3140119 83.8167499,64.8844019 77.2477611,65.9432254 C70.0022022,67.1150694 62.7059752,67.5567416 55.286058,67.455618" id="Fill-1" fill="#000000"></path>
                <path d="M24.545042,37.4360294 C25.8801999,38.2448529 27.1151473,39.2022059 28.5225157,39.8948529 C31.5361999,41.3772059 34.7208315,42.2977941 37.980621,43.0551471 C41.0724104,43.7742647 44.2098841,44.1551471 47.3414631,44.5816176 C48.2168315,44.7007353 49.1098841,44.6860294 49.9955683,44.7580882 C53.4380946,45.0345588 56.8983052,45.0433824 60.3437788,44.9110294 C62.149042,44.8419118 63.9572525,44.9139706 65.7536736,44.7654412 C67.8094631,44.5963235 69.8549367,44.2816176 71.9092525,44.0786765 C74.4277788,43.8286765 76.8858841,43.2610294 79.3321999,42.6639706 C82.9780946,41.7757353 86.5178841,40.5948529 89.500621,38.1786765 C90.2536736,37.5683824 90.3081999,37.6051471 90.4865157,38.5580882 C90.7915683,40.1889706 91.040621,41.8360294 91.4694631,43.4345588 C91.7288315,44.3963235 91.3117788,44.9330882 90.7178841,45.5051471 C87.601042,48.5110294 83.6427262,49.6492647 79.5709367,50.5963235 C77.1614631,51.1566176 74.7343052,51.6110294 72.2968315,51.9786765 C70.208621,52.2948529 68.0879894,52.4522059 65.9658841,52.5786765 C62.1711473,52.8051471 58.3764104,53.0389706 54.5801999,52.8463235 C50.0294631,52.6139706 45.4595683,52.5713235 40.9780946,51.4845588 C38.2974631,50.8345588 35.5225157,50.5889706 32.8964104,49.6698529 C30.4707262,48.8198529 28.1481999,47.7786765 26.0614631,46.2566176 C25.2185157,45.6419118 24.5774631,44.8404412 23.9835683,44.0169118 C23.2585157,43.0125 23.6932525,41.8639706 23.873042,40.8080882 C24.0601999,39.7036765 24.120621,38.5713235 24.545042,37.4360294" id="Fill-123" fill="#2D2D2D"></path>
                <path d="M65.1173367,16.1764706 C65.0348104,17.4529412 64.271442,18.3441176 63.3489157,19.1014706 C61.8398631,20.3397059 60.0228104,20.8367647 58.1261788,20.9911765 C55.4868104,21.2044118 52.9668104,20.7852941 50.7297578,19.2455882 C49.6053367,18.4720588 48.9804946,17.4617647 48.8478631,16.2338235 C54.2533367,18.7588235 59.6411262,18.7573529 65.1173367,16.1764706" id="Fill-125" fill="#2D2D2D"></path>
            </g>
        </g>
    </g>
</svg>